<?xml version="1.0" encoding="UTF-8" standalone="no"?>
<!DOCTYPE svg PUBLIC "-//W3C//DTD SVG 1.1//EN"
 "http://www.w3.org/Graphics/SVG/1.1/DTD/svg11.dtd">
<!-- Generated by graphviz version 2.38.0 (20140413.2041)
 -->
<!-- Title: models_diagram Pages: 1 -->
<svg width="544pt" height="243pt"
 viewBox="0.00 0.00 544.34 243.00" xmlns="http://www.w3.org/2000/svg" xmlns:xlink="http://www.w3.org/1999/xlink">
<g id="graph0" class="graph" transform="scale(1 1) rotate(0) translate(4 239)">
<title>models_diagram</title>
<polygon fill="none" stroke="none" points="-4,4 -4,-239 540.343,-239 540.343,4 -4,4"/>
<!-- _diagram_info -->
<g id="node1" class="node"><title>_diagram_info</title>
<text text-anchor="start" x="8" y="-213.6" font-family="Times,serif" font-size="13.00">Models diagram</text>
<text text-anchor="start" x="8" y="-199.6" font-family="Times,serif" font-size="13.00">Date: Jul 03 2017 &#45; 20:40</text>
<text text-anchor="start" x="8" y="-185.6" font-family="Times,serif" font-size="13.00">Migration version: 20170704002132</text>
<text text-anchor="start" x="8" y="-171.6" font-family="Times,serif" font-size="13.00">Generated by RailRoady 1.5.3</text>
<text text-anchor="start" x="8" y="-157.6" font-family="Times,serif" font-size="13.00">http://railroady.prestonlee.com</text>
</g>
<!-- Comment -->
<g id="node2" class="node"><title>Comment</title>
<path fill="none" stroke="black" d="M244.5,-0.5C244.5,-0.5 351.5,-0.5 351.5,-0.5 357.5,-0.5 363.5,-6.5 363.5,-12.5 363.5,-12.5 363.5,-94.5 363.5,-94.5 363.5,-100.5 357.5,-106.5 351.5,-106.5 351.5,-106.5 244.5,-106.5 244.5,-106.5 238.5,-106.5 232.5,-100.5 232.5,-94.5 232.5,-94.5 232.5,-12.5 232.5,-12.5 232.5,-6.5 238.5,-0.5 244.5,-0.5"/>
<text text-anchor="middle" x="298" y="-91.3" font-family="Times,serif" font-size="14.00">Comment</text>
<polyline fill="none" stroke="black" points="232.5,-83.5 363.5,-83.5 "/>
<text text-anchor="start" x="240.5" y="-68.3" font-family="Times,serif" font-size="14.00">id :INTEGER</text>
<text text-anchor="start" x="240.5" y="-53.3" font-family="Times,serif" font-size="14.00">content :text</text>
<text text-anchor="start" x="240.5" y="-38.3" font-family="Times,serif" font-size="14.00">post_id :integer</text>
<text text-anchor="start" x="240.5" y="-23.3" font-family="Times,serif" font-size="14.00">created_at :datetime</text>
<text text-anchor="start" x="240.5" y="-8.3" font-family="Times,serif" font-size="14.00">updated_at :datetime</text>
</g>
<!-- ApplicationRecord -->
<g id="node3" class="node"><title>ApplicationRecord</title>
<ellipse fill="none" stroke="black" cx="459" cy="-189" rx="77.1866" ry="18"/>
<text text-anchor="middle" x="459" y="-185.3" font-family="Times,serif" font-size="14.00">ApplicationRecord</text>
</g>
<!-- Post -->
<g id="node4" class="node"><title>Post</title>
<path fill="none" stroke="black" d="M244.5,-143.5C244.5,-143.5 351.5,-143.5 351.5,-143.5 357.5,-143.5 363.5,-149.5 363.5,-155.5 363.5,-155.5 363.5,-222.5 363.5,-222.5 363.5,-228.5 357.5,-234.5 351.5,-234.5 351.5,-234.5 244.5,-234.5 244.5,-234.5 238.5,-234.5 232.5,-228.5 232.5,-222.5 232.5,-222.5 232.5,-155.5 232.5,-155.5 232.5,-149.5 238.5,-143.5 244.5,-143.5"/>
<text text-anchor="middle" x="298" y="-219.3" font-family="Times,serif" font-size="14.00">Post</text>
<polyline fill="none" stroke="black" points="232.5,-211.5 363.5,-211.5 "/>
<text text-anchor="start" x="240.5" y="-196.3" font-family="Times,serif" font-size="14.00">id :INTEGER</text>
<text text-anchor="start" x="240.5" y="-181.3" font-family="Times,serif" font-size="14.00">content :text</text>
<text text-anchor="start" x="240.5" y="-166.3" font-family="Times,serif" font-size="14.00">created_at :datetime</text>
<text text-anchor="start" x="240.5" y="-151.3" font-family="Times,serif" font-size="14.00">updated_at :datetime</text>
</g>
<!-- Post&#45;&gt;Comment -->
<g id="edge1" class="edge"><title>Post&#45;&gt;Comment</title>
<path fill="none" stroke="#a0c135" d="M298,-135.111C298,-129.148 298,-123.03 298,-116.96"/>
<ellipse fill="none" stroke="#a0c135" cx="298" cy="-139.175" rx="4" ry="4"/>
<polygon fill="#a0c135" stroke="#a0c135" points="298,-116.824 302.5,-106.824 298,-111.824 298,-106.824 298,-106.824 298,-106.824 298,-111.824 293.5,-106.824 298,-116.824 298,-116.824"/>
</g>
</g>
</svg>
